<svg width="48" height="48" viewBox="0 0 48 48" fill="none" xmlns="http://www.w3.org/2000/svg">
<g opacity="0.5">
<path d="M19.5432 23.275L23.2963 19.522L27.0493 23.275L23.2963 27.028L19.5432 23.275ZM31.4855 23.275L35.2385 19.522L38.9915 23.275L35.2385 27.0281L31.4855 23.275ZM7.60107 23.2749L11.3541 19.5219L15.1071 23.2749L11.3541 27.0279L7.60107 23.2749ZM13.5266 17.3501L23.2761 7.60059L27.0291 11.3536L17.2796 21.1031L13.5266 17.3501Z" fill="white"/>
<path d="M29.3142 21.103L19.5647 11.3536L23.3178 7.60059L33.0673 17.3501L29.3142 21.103ZM17.2804 25.4968L27.0299 35.2463L23.2769 38.9993L13.5273 29.2498L17.2804 25.4968Z" fill="white"/>
<path d="M33.0679 29.2511L23.3184 39.0006L19.5654 35.2476L29.3149 25.498L33.0679 29.2511Z" fill="white"/>
</g>
</svg>
