<svg width="48" height="48" viewBox="0 0 48 48" fill="none" xmlns="http://www.w3.org/2000/svg">
<path d="M19.5432 23.2749L23.2962 19.5219L27.0492 23.2749L23.2962 27.0279L19.5432 23.2749ZM31.4854 23.275L35.2384 19.522L38.9914 23.275L35.2384 27.028L31.4854 23.275ZM7.60107 23.2749L11.3541 19.5219L15.1071 23.2749L11.3541 27.0279L7.60107 23.2749ZM13.5266 17.3501L23.276 7.60059L27.029 11.3536L17.2796 21.1031L13.5266 17.3501Z" fill="#F5B638"/>
<path d="M29.3142 21.103L19.5647 11.3536L23.3178 7.60059L33.0672 17.3501L29.3142 21.103ZM17.2803 25.4967L27.0298 35.2462L23.2768 38.9992L13.5273 29.2497L17.2803 25.4967Z" fill="#F5B638"/>
<path d="M33.0679 29.2501L23.3184 38.9995L19.5654 35.2465L29.3149 25.4971L33.0679 29.2501Z" fill="#F5B638"/>
</svg>
