<svg width="48" height="48" viewBox="0 0 48 48" fill="none" xmlns="http://www.w3.org/2000/svg">
<g opacity="0.5">
<path d="M27.0234 10V16.7751L32.9021 13.3876L27.0234 10Z" fill="white"/>
<path opacity="0.9" d="M32.9014 13.3877V20.1628L38.78 16.7753L32.9014 13.3877Z" fill="white"/>
<path opacity="0.8" d="M27.0264 16.7754V23.5505L32.905 20.163L27.0264 16.7754Z" fill="white"/>
<path opacity="0.8" d="M32.9019 20.1631V26.9382L38.7805 23.5507L32.9019 20.1631Z" fill="white"/>
<path opacity="0.8" d="M27.0259 23.5498V30.3249L32.9045 26.9373L27.0259 23.5498Z" fill="white"/>
<path d="M32.9014 26.9395V33.7146L38.78 30.327L32.9014 26.9395Z" fill="white"/>
<path opacity="0.5" d="M11.8188 16.5439V23.3191L17.6974 19.9315L11.8188 16.5439Z" fill="white"/>
<path opacity="0.2" d="M19.2344 19.0625V25.8377L25.113 22.4501L19.2344 19.0625Z" fill="white"/>
<path opacity="0.4" d="M14.8799 23.3467V30.1218L20.7585 26.7343L14.8799 23.3467Z" fill="white"/>
<path opacity="0.9" d="M18.75 28.4619V35.2402L24.6286 31.8526L18.75 28.4619Z" fill="white"/>
<path opacity="0.7" d="M26.9736 31.3799V38.155L32.8523 34.7674L26.9736 31.3799Z" fill="white"/>
<path opacity="0.9" d="M20.2139 15.7217V22.4968L26.0925 19.1093L20.2139 15.7217Z" fill="white"/>
<path opacity="0.8" d="M27.0217 10V16.7751L21.1431 13.3876L27.0217 10Z" fill="white"/>
<path opacity="0.7" d="M20.2141 12.874V19.6491L14.3354 16.2616L20.2141 12.874Z" fill="white"/>
<path opacity="0.6" d="M26.0973 16.2314V23.0066L20.2188 19.619L26.0973 16.2314Z" fill="white"/>
<path d="M19.2111 19.0625V25.8377L13.3325 22.4501L19.2111 19.0625Z" fill="white"/>
<path opacity="0.6" d="M27.026 23.5498V30.3249L21.1475 26.9373L27.026 23.5498Z" fill="white"/>
<path opacity="0.65" d="M14.8786 25.123V31.8982L9 28.5106L14.8786 25.123Z" fill="white"/>
<path d="M38.7829 16.7754V23.5505L32.9043 20.163L38.7829 16.7754Z" fill="white"/>
<path opacity="0.95" d="M32.9074 20.1631V26.9382L27.0288 23.5507L32.9074 20.1631Z" fill="white"/>
<path opacity="0.9" d="M38.7898 23.5498V30.3249L32.9111 26.9373L38.7898 23.5498Z" fill="white"/>
<path opacity="0.7" d="M32.9035 26.9395V33.7146L27.0249 30.327L32.9035 26.9395Z" fill="white"/>
<path opacity="0.4" d="M25.7199 29.7666V36.5417L19.8413 33.1542L25.7199 29.7666Z" fill="white"/>
<path d="M32.9045 13.3877V20.1628L27.0259 16.7753L32.9045 13.3877Z" fill="white"/>
</g>
</svg>
