<svg width="48" height="48" viewBox="0 0 48 48" fill="none" xmlns="http://www.w3.org/2000/svg">
<path d="M27.0269 10V16.7372L32.9099 13.3736L27.0269 10Z" fill="url(#paint0_linear)"/>
<path opacity="0.9" d="M32.9097 13.373V20.1102L38.7927 16.7371L32.9097 13.373Z" fill="url(#paint1_linear)"/>
<path opacity="0.8" d="M27.0269 16.7363V23.473L32.9099 20.1094L27.0269 16.7363Z" fill="url(#paint2_linear)"/>
<path opacity="0.8" d="M32.9097 20.1104V26.847L38.7927 23.4739L32.9097 20.1104Z" fill="url(#paint3_linear)"/>
<path opacity="0.8" d="M27.0269 23.4736V30.2103L32.9099 26.8467L27.0269 23.4736Z" fill="url(#paint4_linear)"/>
<path d="M32.9097 26.8467V33.5834L38.7927 30.2103L32.9097 26.8467Z" fill="url(#paint5_linear)"/>
<path opacity="0.4" d="M11.8208 16.5098V23.2464L17.7039 19.8733L11.8208 16.5098Z" fill="url(#paint6_linear)"/>
<path opacity="0.2" d="M19.2446 19.0137V25.7503L25.1176 22.3868L19.2446 19.0137Z" fill="url(#paint7_linear)"/>
<path opacity="0.3" d="M14.8823 23.2764V30.013L20.7654 26.64L14.8823 23.2764Z" fill="url(#paint8_linear)"/>
<path opacity="0.9" d="M18.7593 28.3584V35.0951L24.6323 31.722L18.7593 28.3584Z" fill="url(#paint9_linear)"/>
<path opacity="0.7" d="M26.98 31.2588V37.9945L32.853 34.6214L26.98 31.2588Z" fill="url(#paint10_linear)"/>
<path opacity="0.9" d="M20.2227 15.6875V22.4242L26.0957 19.0606L20.2227 15.6875Z" fill="url(#paint11_linear)"/>
<path opacity="0.8" d="M27.0276 10V16.7372L21.1445 13.3736L27.0276 10Z" fill="url(#paint12_linear)"/>
<path opacity="0.6" d="M20.2239 12.8633V19.5984L14.3408 16.2269L20.2239 12.8633Z" fill="url(#paint13_linear)"/>
<path opacity="0.6" d="M26.1057 16.1982V22.9349L20.2227 19.5618L26.1057 16.1982Z" fill="url(#paint14_linear)"/>
<path opacity="0.95" d="M19.2161 19.0137V25.7503L13.333 22.3868L19.2161 19.0137Z" fill="url(#paint15_linear)"/>
<path opacity="0.6" d="M27.0278 23.4736V30.2103L21.1548 26.8467L27.0278 23.4736Z" fill="url(#paint16_linear)"/>
<path opacity="0.55" d="M14.8826 25.042V31.7787L9 28.4051L14.8826 25.042Z" fill="url(#paint17_linear)"/>
<path d="M38.7922 16.7363V23.473L32.9092 20.1094L38.7922 16.7363Z" fill="url(#paint18_linear)"/>
<path opacity="0.95" d="M32.9099 20.1104V26.847L27.0269 23.4739L32.9099 20.1104Z" fill="url(#paint19_linear)"/>
<path opacity="0.9" d="M38.7922 23.4736V30.2103L32.9092 26.8467L38.7922 23.4736Z" fill="url(#paint20_linear)"/>
<path opacity="0.7" d="M32.9099 26.8467V33.5834L27.0269 30.2103L32.9099 26.8467Z" fill="url(#paint21_linear)"/>
<path opacity="0.4" d="M25.7258 29.6533V36.39L19.8428 33.0264L25.7258 29.6533Z" fill="url(#paint22_linear)"/>
<path d="M32.9099 13.373V20.1102L27.0269 16.7371L32.9099 13.373Z" fill="url(#paint23_linear)"/>
<defs>
<linearGradient id="paint0_linear" x1="3.05102" y1="23.8386" x2="38.5732" y2="39.3854" gradientUnits="userSpaceOnUse">
<stop stop-color="#00DC9C"/>
<stop offset="1" stop-color="#00D3DC"/>
</linearGradient>
<linearGradient id="paint1_linear" x1="3.05412" y1="23.8296" x2="38.5772" y2="39.3822" gradientUnits="userSpaceOnUse">
<stop stop-color="#00DC9C"/>
<stop offset="1" stop-color="#00D3DC"/>
</linearGradient>
<linearGradient id="paint2_linear" x1="-0.0593" y1="28.7858" x2="35.4571" y2="44.3336" gradientUnits="userSpaceOnUse">
<stop stop-color="#00DC9C"/>
<stop offset="1" stop-color="#00D3DC"/>
</linearGradient>
<linearGradient id="paint3_linear" x1="-0.0553305" y1="28.7781" x2="35.4621" y2="44.3316" gradientUnits="userSpaceOnUse">
<stop stop-color="#00DC9C"/>
<stop offset="1" stop-color="#00D3DC"/>
</linearGradient>
<linearGradient id="paint4_linear" x1="-3.19866" y1="33.7177" x2="32.3188" y2="49.2713" gradientUnits="userSpaceOnUse">
<stop stop-color="#00DC9C"/>
<stop offset="1" stop-color="#00D3DC"/>
</linearGradient>
<linearGradient id="paint5_linear" x1="-3.1888" y1="33.7157" x2="32.3276" y2="49.2634" gradientUnits="userSpaceOnUse">
<stop stop-color="#00DC9C"/>
<stop offset="1" stop-color="#00D3DC"/>
</linearGradient>
<linearGradient id="paint6_linear" x1="-2.95319" y1="35.626" x2="32.5633" y2="51.1738" gradientUnits="userSpaceOnUse">
<stop stop-color="#00DC9C"/>
<stop offset="1" stop-color="#00D3DC"/>
</linearGradient>
<linearGradient id="paint7_linear" x1="-1.18004" y1="34.918" x2="34.3543" y2="50.4189" gradientUnits="userSpaceOnUse">
<stop stop-color="#00DC9C"/>
<stop offset="1" stop-color="#00D3DC"/>
</linearGradient>
<linearGradient id="paint8_linear" x1="-6.72484" y1="38.4652" x2="28.7916" y2="54.0129" gradientUnits="userSpaceOnUse">
<stop stop-color="#00DC9C"/>
<stop offset="1" stop-color="#00D3DC"/>
</linearGradient>
<linearGradient id="paint9_linear" x1="-7.18493" y1="41.0897" x2="28.3493" y2="56.5906" gradientUnits="userSpaceOnUse">
<stop stop-color="#00DC9C"/>
<stop offset="1" stop-color="#00D3DC"/>
</linearGradient>
<linearGradient id="paint10_linear" x1="-6.98563" y1="39.3753" x2="28.5372" y2="54.8781" gradientUnits="userSpaceOnUse">
<stop stop-color="#00DC9C"/>
<stop offset="1" stop-color="#00D3DC"/>
</linearGradient>
<linearGradient id="paint11_linear" x1="-1.4367" y1="30.8844" x2="34.0986" y2="46.3912" gradientUnits="userSpaceOnUse">
<stop stop-color="#00DC9C"/>
<stop offset="1" stop-color="#00D3DC"/>
</linearGradient>
<linearGradient id="paint12_linear" x1="2.85571" y1="23.7308" x2="38.3789" y2="39.2835" gradientUnits="userSpaceOnUse">
<stop stop-color="#00DC9C"/>
<stop offset="1" stop-color="#00D3DC"/>
</linearGradient>
<linearGradient id="paint13_linear" x1="0.0347524" y1="28.8618" x2="35.5351" y2="44.4183" gradientUnits="userSpaceOnUse">
<stop stop-color="#00DC9C"/>
<stop offset="1" stop-color="#00D3DC"/>
</linearGradient>
<linearGradient id="paint14_linear" x1="-0.326095" y1="28.6318" x2="35.1904" y2="44.1795" gradientUnits="userSpaceOnUse">
<stop stop-color="#00DC9C"/>
<stop offset="1" stop-color="#00D3DC"/>
</linearGradient>
<linearGradient id="paint15_linear" x1="-2.45568" y1="34.1755" x2="33.0618" y2="49.7291" gradientUnits="userSpaceOnUse">
<stop stop-color="#00DC9C"/>
<stop offset="1" stop-color="#00D3DC"/>
</linearGradient>
<linearGradient id="paint16_linear" x1="-3.36277" y1="33.6585" x2="32.1715" y2="49.1594" gradientUnits="userSpaceOnUse">
<stop stop-color="#00DC9C"/>
<stop offset="1" stop-color="#00D3DC"/>
</linearGradient>
<linearGradient id="paint17_linear" x1="-5.49705" y1="40.9482" x2="30.0239" y2="56.4993" gradientUnits="userSpaceOnUse">
<stop stop-color="#00DC9C"/>
<stop offset="1" stop-color="#00D3DC"/>
</linearGradient>
<linearGradient id="paint18_linear" x1="2.86564" y1="23.7199" x2="38.382" y2="39.2676" gradientUnits="userSpaceOnUse">
<stop stop-color="#00DC9C"/>
<stop offset="1" stop-color="#00D3DC"/>
</linearGradient>
<linearGradient id="paint19_linear" x1="-0.261648" y1="28.6703" x2="35.2548" y2="44.218" gradientUnits="userSpaceOnUse">
<stop stop-color="#00DC9C"/>
<stop offset="1" stop-color="#00D3DC"/>
</linearGradient>
<linearGradient id="paint20_linear" x1="-0.239638" y1="28.672" x2="35.2768" y2="44.2197" gradientUnits="userSpaceOnUse">
<stop stop-color="#00DC9C"/>
<stop offset="1" stop-color="#00D3DC"/>
</linearGradient>
<linearGradient id="paint21_linear" x1="-3.37766" y1="33.6147" x2="32.1398" y2="49.1682" gradientUnits="userSpaceOnUse">
<stop stop-color="#00DC9C"/>
<stop offset="1" stop-color="#00D3DC"/>
</linearGradient>
<linearGradient id="paint22_linear" x1="-6.19569" y1="38.9341" x2="29.3217" y2="54.4877" gradientUnits="userSpaceOnUse">
<stop stop-color="#00DC9C"/>
<stop offset="1" stop-color="#00D3DC"/>
</linearGradient>
<linearGradient id="paint23_linear" x1="2.86905" y1="23.7353" x2="38.3922" y2="39.2879" gradientUnits="userSpaceOnUse">
<stop stop-color="#00DC9C"/>
<stop offset="1" stop-color="#00D3DC"/>
</linearGradient>
</defs>
</svg>
